<svg width="240" height="62" viewBox="0 0 240 62" fill="none" xmlns="http://www.w3.org/2000/svg">
<g clip-path="url(#clip0_12_2)">
<path d="M52.9452 29.5765L27.6 4.38467C27.0871 3.87487 26.2452 3.87487 25.7323 4.38467L21.4645 8.62659C20.9516 9.13639 20.9516 9.96362 21.4645 10.483L26.4484 15.4368L40.6742 29.5765C41.1871 30.0863 41.1871 30.9135 40.6742 31.4329L26.4387 45.5823L21.4645 50.536C20.9516 51.0458 20.9516 51.8731 21.4645 52.3925L25.7323 56.6344C26.2452 57.1442 27.0774 57.1442 27.6 56.6344L52.9452 31.4426C53.4581 30.9328 53.4581 30.1055 52.9452 29.5861V29.5765Z" fill="#501B9A"/>
<path d="M22.3936 41.552L12.2032 31.4233C11.6903 30.9135 11.6903 30.0863 12.2032 29.5669L22.3936 19.4382C22.9065 18.9284 22.9065 18.1012 22.3936 17.5818L18.3484 13.5611C17.8355 13.0513 17.0032 13.0513 16.4807 13.5611L0.387119 29.5765C-0.125784 30.0863 -0.125784 30.9135 0.387119 31.4329L16.4807 47.4291C16.9936 47.9389 17.8258 47.9389 18.3484 47.4291L22.3936 43.4084C22.9065 42.8986 22.9065 42.0714 22.3936 41.552Z" fill="#501B9A"/>
<path d="M52.9452 29.5765L27.6 4.38467C27.0871 3.87487 26.2452 3.87487 25.7323 4.38467L21.4645 8.62659C20.9516 9.13639 20.9516 9.96362 21.4645 10.483L26.4484 15.4368L40.6742 29.5765C41.1871 30.0863 41.1871 30.9135 40.6742 31.4329L26.4387 45.5823L21.4645 50.536C20.9516 51.0458 20.9516 51.8731 21.4645 52.3925L25.7323 56.6344C26.2452 57.1442 27.0774 57.1442 27.6 56.6344L52.9452 31.4426C53.4581 30.9328 53.4581 30.1055 52.9452 29.5861V29.5765Z" fill="url(#paint0_linear_12_2)"/>
<path d="M22.3936 41.552L12.2032 31.4233C11.6903 30.9135 11.6903 30.0863 12.2032 29.5669L22.3936 19.4382C22.9065 18.9284 22.9065 18.1012 22.3936 17.5818L18.3484 13.5611C17.8355 13.0513 17.0032 13.0513 16.4807 13.5611L0.387119 29.5765C-0.125784 30.0863 -0.125784 30.9135 0.387119 31.4329L16.4807 47.4291C16.9936 47.9389 17.8258 47.9389 18.3484 47.4291L22.3936 43.4084C22.9065 42.8986 22.9065 42.0714 22.3936 41.552Z" fill="url(#paint1_linear_12_2)"/>
<path d="M26.1871 28.2203C25.113 28.3261 24.242 29.1918 24.1355 30.2595C23.9904 31.712 25.2097 32.9239 26.6613 32.77C27.7355 32.6642 28.6065 31.7985 28.713 30.7308C28.8581 29.288 27.6388 28.076 26.1871 28.2203Z" fill="url(#paint2_linear_12_2)"/>
<path d="M23.3033 32.1736C23.4195 32.0582 23.4195 31.8658 23.3033 31.7408L22.2679 30.7116C22.1517 30.5961 22.1517 30.4038 22.2679 30.2787L23.3033 29.2495C23.4195 29.1341 23.4195 28.9417 23.3033 28.8167L20.9033 26.4312C20.7872 26.3157 20.5937 26.3157 20.4775 26.4312L20.0421 26.8544L17.0227 29.8555L16.5872 30.2883C16.4808 30.4038 16.4808 30.5961 16.5969 30.7116L20.4582 34.5495C20.5743 34.6649 20.7679 34.6649 20.8937 34.5495L22.6356 32.8181L23.2937 32.164L23.3033 32.1736Z" fill="white"/>
<path d="M24.7354 27.4027C24.8515 27.5182 25.0451 27.5182 25.1709 27.4027L26.2064 26.3735C26.3225 26.2581 26.5161 26.2581 26.6419 26.3735L27.6773 27.4027C27.7935 27.5182 27.987 27.5182 28.1128 27.4027L30.5128 25.0173C30.629 24.9018 30.629 24.7095 30.5128 24.5844L26.6515 20.7465C26.5354 20.6311 26.3419 20.6311 26.2161 20.7465L25.7709 21.189L22.7709 24.1708L22.3644 24.5844C22.2483 24.6998 22.2483 24.8922 22.3644 25.0173L24.7644 27.4027H24.7354Z" fill="white"/>
<path d="M28.1032 33.5973C27.9871 33.4819 27.7935 33.4819 27.6677 33.5973L26.6323 34.6265C26.5161 34.742 26.3226 34.742 26.1968 34.6265L25.171 33.5973C25.0548 33.4819 24.8613 33.4819 24.7355 33.5973L24.0774 34.2514L22.6452 35.6846L22.3452 35.9828C22.229 36.0982 22.229 36.2906 22.3452 36.4156L26.2064 40.2536C26.3226 40.369 26.5161 40.369 26.6419 40.2536L30.5032 36.4156C30.6193 36.3002 30.6193 36.1078 30.5032 35.9828L28.1032 33.5973Z" fill="white"/>
<path d="M36.2226 30.2884L32.3613 26.4505C32.2452 26.335 32.0516 26.335 31.9258 26.4505L30.1839 28.1819L29.5355 28.8359C29.4194 28.9514 29.4194 29.1437 29.5355 29.2688L30.5613 30.2884C30.6774 30.4038 30.6774 30.5962 30.5613 30.7212L29.5258 31.7505C29.4097 31.8659 29.4097 32.0583 29.5258 32.1833L31.9258 34.5688C32.0419 34.6842 32.2355 34.6842 32.3613 34.5688L36.2226 30.7309C36.3387 30.6154 36.3387 30.4231 36.2226 30.298V30.2884Z" fill="white"/>
<path d="M75.7839 24.2477L83.4484 15.6292C83.5065 15.5426 83.5742 15.4464 83.5742 15.3887C83.5742 15.2348 83.4484 15.1194 83.2065 15.1194H78.9968C78.7839 15.1194 78.6 15.1771 78.4452 15.3599L68.7387 26.5851V15.5426C68.7387 15.2733 68.5548 15.1194 68.3129 15.1194H64.7129C64.442 15.1194 64.2871 15.2733 64.2871 15.5426V38.8203C64.2871 39.0896 64.442 39.2435 64.7129 39.2435H68.3129C68.5548 39.2435 68.7387 39.0896 68.7387 38.8203V32.1448L72.8226 27.5277L79.5097 38.9357C79.5968 39.1473 79.7807 39.2435 79.9936 39.2435H84.271C84.5129 39.2435 84.6387 39.1281 84.6387 38.9357C84.6387 38.878 84.6097 38.8203 84.5807 38.7241L75.7839 24.2477Z" fill="white"/>
<path d="M113.429 22.2181H109.645C109.432 22.2181 109.248 22.3047 109.152 22.5548L105.097 32.9912L100.916 22.5548C100.829 22.3143 100.674 22.2181 100.423 22.2181H96.5226C96.4646 22.1604 96.3871 22.1219 96.271 22.0931C95.9323 22.0353 95.6033 21.968 95.1097 21.968C93.0678 21.968 91.0549 22.9395 89.8839 24.7575L89.7968 22.6317C89.7968 22.3239 89.5839 22.2085 89.342 22.2085H86.2259C85.9549 22.2085 85.8 22.3624 85.8 22.6317V38.8107C85.8 39.08 85.9549 39.2339 86.2259 39.2339H89.642C89.9129 39.2339 90.0678 39.08 90.0678 38.8107V30.4326C90.0678 27.7297 92.2646 26.1522 94.5871 26.1522C95.2936 26.1522 95.8065 26.2773 96.271 26.2773C96.4839 26.2773 96.6388 26.1907 96.6388 25.9118V24.1323L102.871 38.1373L99.7259 45.9094C99.6388 46.2172 99.7549 46.3903 100.065 46.3903H103.665C103.907 46.3903 104.061 46.3038 104.158 46.0537L113.748 22.6894C113.903 22.4201 113.719 22.2085 113.439 22.2085L113.429 22.2181Z" fill="white"/>
<path d="M124.355 21.8815C121.974 21.8815 119.99 22.8818 118.771 24.5555L118.684 22.6414C118.684 22.3336 118.471 22.2181 118.229 22.2181H115.113C114.832 22.2181 114.687 22.372 114.687 22.6414V45.9768C114.687 46.2557 114.842 46.4 115.113 46.4H118.529C118.81 46.4 118.955 46.2461 118.955 45.9768V37.1755C120.232 38.6953 122.1 39.5706 124.355 39.5706C129.242 39.5706 132.358 35.9635 132.358 30.7405C132.358 25.5174 129.242 21.8815 124.355 21.8815ZM123.29 35.6846C120.542 35.6846 118.684 33.655 118.684 30.7405C118.684 27.8259 120.542 25.7675 123.29 25.7675C126.039 25.7675 127.935 27.7971 127.935 30.7405C127.935 33.6838 126.048 35.6846 123.29 35.6846Z" fill="white"/>
<path d="M145.423 35.8096L142.829 34.6553C142.587 34.5303 142.374 34.6264 142.248 34.8669C141.91 35.4441 141.513 35.6845 140.971 35.6845C139.626 35.6845 139.045 34.7707 139.045 32.9239V26.0368H143.1C143.381 26.0368 143.526 25.854 143.526 25.6136V22.6413C143.526 22.3624 143.371 22.2181 143.1 22.2181H139.045V17.6299C139.045 17.3894 138.861 17.2067 138.619 17.2067H135.174C134.894 17.2067 134.748 17.3894 134.748 17.6299V22.2181H132.242C131.961 22.2181 131.816 22.372 131.816 22.6413V25.6136C131.816 25.854 131.971 26.0368 132.242 26.0368H134.748V32.6546C134.748 37.2716 136.8 39.5705 140.487 39.5705C142.442 39.5705 144.329 38.7529 145.548 36.5021C145.645 36.3771 145.674 36.2617 145.674 36.1655C145.674 36.0116 145.577 35.8961 145.432 35.8L145.423 35.8096Z" fill="white"/>
<path d="M153.658 21.8815C148.161 21.8815 144.59 25.5559 144.59 30.7405C144.59 35.925 148.161 39.5706 153.658 39.5706C159.155 39.5706 162.726 35.8962 162.726 30.7405C162.726 25.5847 159.155 21.8815 153.658 21.8815ZM153.658 35.6846C150.91 35.6846 149.013 33.655 149.013 30.7405C149.013 27.8259 150.9 25.7675 153.658 25.7675C156.416 25.7675 158.303 27.7971 158.303 30.7405C158.303 33.6838 156.406 35.6846 153.658 35.6846Z" fill="white"/>
<path d="M185.381 15.1194H181.287C181.045 15.1194 180.832 15.206 180.764 15.456L174.232 33.0874L167.642 15.456C167.584 15.2156 167.4 15.1194 167.158 15.1194H163.006C162.764 15.1194 162.61 15.2444 162.61 15.4272C162.61 15.4849 162.639 15.5522 162.668 15.6099L172.161 38.9165C172.258 39.157 172.403 39.2531 172.655 39.2531H175.742C175.955 39.2531 176.139 39.1666 176.226 38.9165L185.719 15.6099C185.845 15.3406 185.69 15.129 185.381 15.129V15.1194Z" fill="white"/>
<path d="M200.255 22.2181H197.168C196.897 22.2181 196.713 22.3432 196.713 22.6414L196.597 24.5555C195.377 22.8818 193.393 21.8815 191.013 21.8815C186.126 21.8815 183.01 25.4885 183.01 30.7405C183.01 35.9924 186.126 39.5706 191.013 39.5706C193.393 39.5706 195.377 38.5702 196.597 36.8965L196.713 38.8107C196.713 39.1185 196.897 39.2339 197.168 39.2339H200.255C200.526 39.2339 200.71 39.08 200.71 38.8107V22.6317C200.71 22.3528 200.526 22.2085 200.255 22.2085V22.2181ZM192.068 35.6942C189.319 35.6942 187.432 33.6646 187.432 30.7501C187.432 27.8356 189.329 25.7771 192.068 25.7771C194.806 25.7771 196.713 27.8067 196.713 30.7501C196.713 33.6934 194.826 35.6942 192.068 35.6942Z" fill="white"/>
<path d="M218.506 22.2181H215.09C214.81 22.2181 214.664 22.372 214.664 22.6413V30.8943C214.664 34.1455 212.681 35.6845 210.571 35.6845C208.345 35.6845 207.3 34.3764 207.3 31.558V22.6413C207.3 22.3624 207.145 22.2181 206.874 22.2181H203.429C203.187 22.2181 203.003 22.372 203.003 22.6413V33.2894C203.003 37.2043 205.297 39.5706 209.264 39.5706C211.432 39.5706 213.6 38.6952 214.848 36.8677L214.935 38.8107C214.935 39.1185 215.148 39.2339 215.39 39.2339H218.506C218.777 39.2339 218.932 39.08 218.932 38.8107V22.6317C218.932 22.3528 218.777 22.2085 218.506 22.2085V22.2181Z" fill="white"/>
<path d="M221.835 14.6H225.252C225.484 14.6 225.677 14.7924 225.677 15.0232V38.8107C225.677 39.0415 225.484 39.2339 225.252 39.2339H221.835C221.603 39.2339 221.41 39.0415 221.41 38.8107V15.0232C221.41 14.7924 221.603 14.6 221.835 14.6Z" fill="white"/>
<path d="M239.758 35.8096L237.165 34.6553C236.923 34.5303 236.71 34.6264 236.584 34.8669C236.245 35.4441 235.848 35.6845 235.306 35.6845C233.961 35.6845 233.381 34.7707 233.381 32.9239V26.0368H237.445C237.716 26.0368 237.871 25.854 237.871 25.6136V22.6413C237.871 22.3624 237.716 22.2181 237.445 22.2181H233.381V17.6299C233.381 17.3894 233.197 17.2067 232.955 17.2067H229.51C229.229 17.2067 229.084 17.3894 229.084 17.6299V22.2181H226.577C226.306 22.2181 226.152 22.372 226.152 22.6413V25.6136C226.152 25.854 226.306 26.0368 226.577 26.0368H229.084V32.6546C229.084 37.262 231.126 39.5705 234.823 39.5705C236.777 39.5705 238.665 38.7529 239.894 36.5021C239.981 36.3771 240.019 36.2617 240.019 36.1655C240.019 36.0116 239.932 35.8961 239.777 35.8L239.758 35.8096Z" fill="white"/>
<path d="M185.758 20.0636C185.758 19.9962 185.787 19.9097 185.806 19.8423C185.855 19.6499 185.932 19.4672 186.01 19.2844C186.135 19.0247 186.29 18.7842 186.474 18.563C186.706 18.2841 186.977 18.0436 187.287 17.8416C187.674 17.5915 188.1 17.4087 188.535 17.2933C189.116 17.1298 189.726 17.0721 190.326 17.0817C191.139 17.0817 191.952 17.1971 192.745 17.3703C193.665 17.5723 194.545 17.8897 195.465 18.0628C196.142 18.1879 196.819 18.2744 197.506 18.3033C198.232 18.3322 198.987 18.3033 199.674 18.0724C200.071 17.9378 200.458 17.7166 200.71 17.3703V17.3895C200.71 17.4665 200.681 17.5434 200.661 17.6204C200.613 17.8127 200.535 18.0051 200.448 18.1879C200.323 18.4476 200.158 18.6977 199.974 18.9189C199.732 19.2075 199.452 19.4479 199.132 19.6499C198.735 19.9 198.29 20.0828 197.835 20.1982C197.226 20.3521 196.597 20.4002 195.977 20.381C195.126 20.3617 194.284 20.2271 193.461 20.0347C192.735 19.8616 192.039 19.6115 191.303 19.4672C190.723 19.3518 190.132 19.2556 189.532 19.2075C188.835 19.1498 188.119 19.1305 187.432 19.2556C186.842 19.3518 186.223 19.5634 185.826 20.0347C185.806 20.0636 185.787 20.0828 185.768 20.1117V20.0924L185.758 20.0636Z" fill="url(#paint3_linear_12_2)"/>
</g>
<defs>
<linearGradient id="paint0_linear_12_2" x1="13.0645" y1="16.7834" x2="40.0906" y2="44.39" gradientUnits="userSpaceOnUse">
<stop offset="0.19" stop-color="#F95A0B"/>
<stop offset="0.45" stop-color="#F96116"/>
<stop offset="0.91" stop-color="#F97635"/>
<stop offset="1" stop-color="#FA7B3C"/>
</linearGradient>
<linearGradient id="paint1_linear_12_2" x1="13.0645" y1="16.7834" x2="40.0906" y2="44.39" gradientUnits="userSpaceOnUse">
<stop offset="0.19" stop-color="#F95A0B"/>
<stop offset="0.45" stop-color="#F96116"/>
<stop offset="0.91" stop-color="#F97635"/>
<stop offset="1" stop-color="#FA7B3C"/>
</linearGradient>
<linearGradient id="paint2_linear_12_2" x1="24.8033" y1="28.8744" x2="28.0157" y2="32.1451" gradientUnits="userSpaceOnUse">
<stop offset="0.19" stop-color="#F95A0B"/>
<stop offset="0.45" stop-color="#F96116"/>
<stop offset="0.91" stop-color="#F97635"/>
<stop offset="1" stop-color="#FA7B3C"/>
</linearGradient>
<linearGradient id="paint3_linear_12_2" x1="189.813" y1="15.2734" x2="196.613" y2="22.2113" gradientUnits="userSpaceOnUse">
<stop offset="0.19" stop-color="#F95A0B"/>
<stop offset="0.45" stop-color="#F96116"/>
<stop offset="0.91" stop-color="#F97635"/>
<stop offset="1" stop-color="#FA7B3C"/>
</linearGradient>
<clipPath id="clip0_12_2">
<rect width="240" height="53" fill="white" transform="translate(0 4)"/>
</clipPath>
</defs>
</svg>
