<svg width="248" height="64" viewBox="0 0 248 64" fill="none" xmlns="http://www.w3.org/2000/svg">
<g clip-path="url(#clip0_7_2)">
<path d="M54.7065 30.5871L28.5161 4.40021C27.9838 3.8679 27.1192 3.8679 26.5905 4.40021L22.1819 8.81232C21.6496 9.34463 21.6496 10.2056 22.1819 10.7379L27.3264 15.8824L42.0311 30.5871C42.5634 31.1194 42.5634 31.9804 42.0311 32.5127L27.3229 47.2209L22.1819 52.3654C21.6496 52.8977 21.6496 53.7587 22.1819 54.291L26.5905 58.6996C27.1228 59.2319 27.9838 59.2319 28.5161 58.6996L54.7065 32.5091C55.2389 31.9768 55.2389 31.1158 54.7065 30.5835V30.5871Z" fill="#501B9A"/>
<path d="M23.1429 43.0409L12.6181 32.5162C12.0858 31.9839 12.0858 31.1229 12.6181 30.5906L23.1429 20.0658C23.6752 19.5335 23.6752 18.6725 23.1429 18.1402L18.9594 13.9567C18.4271 13.4244 17.5661 13.4244 17.0338 13.9567L0.399966 30.587C-0.132345 31.1193 -0.132345 31.9803 0.399966 32.5126L17.0338 49.1465C17.5661 49.6788 18.4271 49.6788 18.9594 49.1465L23.1429 44.963C23.6752 44.4307 23.6752 43.5697 23.1429 43.0374V43.0409Z" fill="#501B9A"/>
<path d="M54.7065 30.5871L28.5161 4.40021C27.9838 3.8679 27.1192 3.8679 26.5905 4.40021L22.1819 8.81232C21.6496 9.34463 21.6496 10.2056 22.1819 10.7379L27.3264 15.8824L42.0311 30.5871C42.5634 31.1194 42.5634 31.9804 42.0311 32.5127L27.3229 47.2209L22.1819 52.3654C21.6496 52.8977 21.6496 53.7587 22.1819 54.291L26.5905 58.6996C27.1228 59.2319 27.9838 59.2319 28.5161 58.6996L54.7065 32.5091C55.2389 31.9768 55.2389 31.1158 54.7065 30.5835V30.5871Z" fill="url(#paint0_linear_7_2)"/>
<path d="M23.1429 43.0409L12.6181 32.5162C12.0858 31.9839 12.0858 31.1229 12.6181 30.5906L23.1429 20.0658C23.6752 19.5335 23.6752 18.6725 23.1429 18.1402L18.9594 13.9567C18.4271 13.4244 17.5661 13.4244 17.0338 13.9567L0.399966 30.587C-0.132345 31.1193 -0.132345 31.9803 0.399966 32.5126L17.0338 49.1465C17.5661 49.6788 18.4271 49.6788 18.9594 49.1465L23.1429 44.963C23.6752 44.4307 23.6752 43.5697 23.1429 43.0374V43.0409Z" fill="url(#paint1_linear_7_2)"/>
<path d="M27.0584 29.183C25.9473 29.2937 25.047 30.1904 24.9363 31.3015C24.7827 32.8055 26.0438 34.0666 27.5478 33.913C28.6589 33.7987 29.5556 32.902 29.6664 31.7874C29.8164 30.2869 28.5589 29.0329 27.0584 29.1794V29.183Z" fill="url(#paint2_linear_7_2)"/>
<path d="M24.0825 33.2879C24.204 33.1665 24.204 32.9628 24.0825 32.8413L23.0143 31.7732C22.8929 31.6481 22.8929 31.448 23.0143 31.3266L24.0825 30.262C24.2076 30.1369 24.2076 29.9369 24.0825 29.8154L21.6032 27.336C21.4817 27.2146 21.2888 27.2146 21.1637 27.3289L20.7172 27.7719L17.5983 30.8943L17.1518 31.3409C17.041 31.4659 17.0446 31.6588 17.1625 31.7767L21.1566 35.7708C21.2816 35.8959 21.4817 35.8959 21.6032 35.7708L23.4037 33.9703L24.0825 33.2915V33.2879Z" fill="#F95A0B"/>
<path d="M25.5616 28.3363C25.683 28.4614 25.8867 28.4614 26.0081 28.3363L27.0728 27.2717C27.1942 27.1467 27.3979 27.1467 27.5193 27.2717L28.5875 28.3363C28.709 28.4614 28.9126 28.4614 29.0341 28.3363L31.5099 25.857C31.6349 25.7355 31.6349 25.5319 31.5099 25.4104L27.5193 21.4163C27.3943 21.2912 27.1942 21.2912 27.0728 21.4163L26.6083 21.8772L23.5074 24.9817L23.5002 24.9888L23.0786 25.4104C22.9536 25.5319 22.9536 25.7355 23.0786 25.857L25.558 28.3363H25.5616Z" fill="#F95A0B"/>
<path d="M29.0376 34.7705C28.9126 34.6455 28.7125 34.6455 28.591 34.7705L27.5228 35.8352C27.3978 35.9602 27.1977 35.9602 27.0763 35.8352L26.0116 34.7705C25.8902 34.6491 25.6901 34.6455 25.5651 34.7705L24.8827 35.4493L23.4001 36.9355L23.0857 37.2499C22.9607 37.3749 22.9607 37.575 23.0857 37.6965L27.0798 41.6906C27.2049 41.8156 27.4049 41.8156 27.5264 41.6906L31.5205 37.6965C31.6456 37.5714 31.6456 37.3714 31.5205 37.2499L29.0412 34.7741L29.0376 34.7705Z" fill="#F95A0B"/>
<path d="M37.4332 31.3265L33.4391 27.3324C33.3141 27.2074 33.114 27.2074 32.9925 27.3324L31.192 29.133L30.5168 29.8154C30.3953 29.9404 30.3953 30.1369 30.5168 30.2619L31.5814 31.3265C31.7064 31.4516 31.7064 31.6517 31.5814 31.7731L30.5168 32.8413C30.3917 32.9664 30.3953 33.1664 30.5168 33.2879L32.9925 35.7637C33.1176 35.8887 33.3176 35.8887 33.4391 35.7637L37.4297 31.7731C37.5547 31.6481 37.5547 31.448 37.4297 31.3265H37.4332Z" fill="#F95A0B"/>
<path d="M24.0825 33.2879C24.204 33.1665 24.204 32.9628 24.0825 32.8413L23.0143 31.7732C22.8929 31.6481 22.8929 31.448 23.0143 31.3266L24.0825 30.262C24.2076 30.1369 24.2076 29.9369 24.0825 29.8154L21.6032 27.336C21.4817 27.2146 21.2888 27.2146 21.1637 27.3289L20.7172 27.7719L17.5983 30.8943L17.1518 31.3409C17.041 31.4659 17.0446 31.6588 17.1625 31.7767L21.1566 35.7708C21.2816 35.8959 21.4817 35.8959 21.6032 35.7708L23.4037 33.9703L24.0825 33.2915V33.2879Z" fill="url(#paint3_linear_7_2)"/>
<path d="M25.5616 28.3363C25.683 28.4614 25.8867 28.4614 26.0081 28.3363L27.0728 27.2717C27.1942 27.1467 27.3979 27.1467 27.5193 27.2717L28.5875 28.3363C28.709 28.4614 28.9126 28.4614 29.0341 28.3363L31.5099 25.857C31.6349 25.7355 31.6349 25.5319 31.5099 25.4104L27.5193 21.4163C27.3943 21.2912 27.1942 21.2912 27.0728 21.4163L26.6083 21.8772L23.5074 24.9817L23.5002 24.9888L23.0786 25.4104C22.9536 25.5319 22.9536 25.7355 23.0786 25.857L25.558 28.3363H25.5616Z" fill="url(#paint4_linear_7_2)"/>
<path d="M29.0376 34.7705C28.9126 34.6455 28.7125 34.6455 28.591 34.7705L27.5228 35.8352C27.3978 35.9602 27.1977 35.9602 27.0763 35.8352L26.0116 34.7705C25.8902 34.6491 25.6901 34.6455 25.5651 34.7705L24.8827 35.4493L23.4001 36.9355L23.0857 37.2499C22.9607 37.3749 22.9607 37.575 23.0857 37.6965L27.0798 41.6906C27.2049 41.8156 27.4049 41.8156 27.5264 41.6906L31.5205 37.6965C31.6456 37.5714 31.6456 37.3714 31.5205 37.2499L29.0412 34.7741L29.0376 34.7705Z" fill="url(#paint5_linear_7_2)"/>
<path d="M37.4332 31.3265L33.4391 27.3324C33.3141 27.2074 33.114 27.2074 32.9925 27.3324L31.192 29.133L30.5168 29.8154C30.3953 29.9404 30.3953 30.1369 30.5168 30.2619L31.5814 31.3265C31.7064 31.4516 31.7064 31.6517 31.5814 31.7731L30.5168 32.8413C30.3917 32.9664 30.3953 33.1664 30.5168 33.2879L32.9925 35.7637C33.1176 35.8887 33.3176 35.8887 33.4391 35.7637L37.4297 31.7731C37.5547 31.6481 37.5547 31.448 37.4297 31.3265H37.4332Z" fill="url(#paint6_linear_7_2)"/>
<path d="M78.3104 25.0531L86.2272 16.0931C86.2915 16.0002 86.3522 15.9038 86.3522 15.8395C86.3522 15.6823 86.2271 15.5573 85.9735 15.5573H81.6185C81.3971 15.5573 81.2077 15.618 81.0469 15.8073L71.0188 27.4825V16.0002C71.0188 15.718 70.8294 15.5573 70.5758 15.5573H66.8532C66.5709 15.5573 66.4102 15.7144 66.4102 16.0002V40.1972C66.4102 40.4794 66.5674 40.6366 66.8532 40.6366H70.5758C70.8294 40.6366 71.0188 40.4794 71.0188 40.1972V33.2557L75.2451 28.4578L82.1544 40.3187C82.2473 40.5402 82.4367 40.6331 82.6582 40.6331H87.0774C87.3311 40.6331 87.4561 40.508 87.4561 40.3187C87.4561 40.2579 87.4275 40.1936 87.3954 40.1007L78.3104 25.0495V25.0531Z" fill="#501B9A"/>
<path d="M117.208 22.9382H113.296C113.075 22.9382 112.886 23.0311 112.789 23.2847L108.595 34.1382L104.272 23.2847C104.179 23.0311 104.019 22.9382 103.765 22.9382H99.7386C99.6778 22.881 99.5957 22.8382 99.4778 22.8131C99.1312 22.7524 98.7847 22.6881 98.2774 22.6881C96.1624 22.6881 94.0832 23.6991 92.8828 25.589L92.7899 23.3812C92.7899 23.0668 92.5684 22.9382 92.3184 22.9382H89.0995C88.8173 22.9382 88.6565 23.0954 88.6565 23.3812V40.1972C88.6565 40.4795 88.8137 40.6367 89.0995 40.6367H92.6328C92.915 40.6367 93.0757 40.4795 93.0757 40.1972V31.4873C93.0757 28.6793 95.3479 27.0395 97.7451 27.0395C98.4703 27.0395 99.0062 27.1645 99.4813 27.1645C99.6993 27.1645 99.86 27.0716 99.86 26.7858V24.9388L106.298 39.5006L103.047 47.5781C102.954 47.8925 103.079 48.0819 103.393 48.0819H107.116C107.37 48.0819 107.527 47.989 107.623 47.7353L117.53 23.4419C117.687 23.1597 117.498 22.9382 117.216 22.9382H117.208Z" fill="#501B9A"/>
<path d="M128.501 22.5917C126.04 22.5917 123.993 23.6313 122.728 25.3676L122.635 23.3812C122.635 23.0668 122.414 22.9382 122.16 22.9382H118.941C118.655 22.9382 118.498 23.0954 118.498 23.3812V47.6425C118.498 47.9283 118.655 48.0855 118.941 48.0855H122.474C122.76 48.0855 122.917 47.9283 122.917 47.6425V38.4931C124.243 40.0722 126.168 40.9832 128.501 40.9832C133.549 40.9832 136.768 37.2285 136.768 31.8017C136.768 26.375 133.549 22.5917 128.501 22.5917ZM127.397 36.9462C124.557 36.9462 122.635 34.8313 122.635 31.8053C122.635 28.7793 124.557 26.6322 127.397 26.6322C130.237 26.6322 132.192 28.7472 132.192 31.8053C132.192 34.8634 130.237 36.9462 127.397 36.9462Z" fill="#501B9A"/>
<path d="M150.269 37.0748L147.586 35.8744C147.332 35.7493 147.111 35.8422 146.986 36.0959C146.639 36.6961 146.228 36.9461 145.66 36.9461C144.271 36.9461 143.674 35.9994 143.674 34.0774V26.9144H147.868C148.154 26.9144 148.311 26.725 148.311 26.4714V23.3811C148.311 23.0953 148.154 22.9381 147.868 22.9381H143.674V18.1723C143.674 17.9187 143.485 17.7329 143.231 17.7329H139.669C139.383 17.7329 139.226 17.9187 139.226 18.1723V22.9381H136.64C136.354 22.9381 136.197 23.0953 136.197 23.3811V26.4714C136.197 26.725 136.354 26.9144 136.64 26.9144H139.226V33.7916C139.226 38.5859 141.341 40.9831 145.16 40.9831C147.179 40.9831 149.133 40.1329 150.394 37.7964C150.49 37.6714 150.522 37.5428 150.522 37.4499C150.522 37.2927 150.426 37.1676 150.269 37.0712V37.0748Z" fill="#501B9A"/>
<path d="M158.786 22.5917C153.109 22.5917 149.415 26.4107 149.415 31.8017C149.415 37.1927 153.105 40.9832 158.786 40.9832C164.466 40.9832 168.157 37.1677 168.157 31.8017C168.157 26.4357 164.466 22.5917 158.786 22.5917ZM158.786 36.9462C155.946 36.9462 153.991 34.8313 153.991 31.8053C153.991 28.7793 155.946 26.6322 158.786 26.6322C161.626 26.6322 163.58 28.7472 163.58 31.8053C163.58 34.8634 161.622 36.9462 158.786 36.9462Z" fill="#501B9A"/>
<path d="M78.3104 25.0531L86.2272 16.0931C86.2915 16.0002 86.3522 15.9038 86.3522 15.8395C86.3522 15.6823 86.2271 15.5573 85.9735 15.5573H81.6185C81.3971 15.5573 81.2077 15.618 81.0469 15.8073L71.0188 27.4825V16.0002C71.0188 15.718 70.8294 15.5573 70.5758 15.5573H66.8532C66.5709 15.5573 66.4102 15.7144 66.4102 16.0002V40.1972C66.4102 40.4794 66.5674 40.6366 66.8532 40.6366H70.5758C70.8294 40.6366 71.0188 40.4794 71.0188 40.1972V33.2557L75.2451 28.4578L82.1544 40.3187C82.2473 40.5402 82.4367 40.6331 82.6582 40.6331H87.0774C87.3311 40.6331 87.4561 40.508 87.4561 40.3187C87.4561 40.2579 87.4275 40.1936 87.3954 40.1007L78.3104 25.0495V25.0531Z" fill="url(#paint7_linear_7_2)"/>
<path d="M117.208 22.9382H113.296C113.075 22.9382 112.886 23.0311 112.789 23.2847L108.595 34.1382L104.272 23.2847C104.179 23.0311 104.019 22.9382 103.765 22.9382H99.7386C99.6778 22.881 99.5957 22.8382 99.4778 22.8131C99.1312 22.7524 98.7847 22.6881 98.2774 22.6881C96.1624 22.6881 94.0832 23.6991 92.8828 25.589L92.7899 23.3812C92.7899 23.0668 92.5684 22.9382 92.3184 22.9382H89.0995C88.8173 22.9382 88.6565 23.0954 88.6565 23.3812V40.1972C88.6565 40.4795 88.8137 40.6367 89.0995 40.6367H92.6328C92.915 40.6367 93.0757 40.4795 93.0757 40.1972V31.4873C93.0757 28.6793 95.3479 27.0395 97.7451 27.0395C98.4703 27.0395 99.0062 27.1645 99.4813 27.1645C99.6993 27.1645 99.86 27.0716 99.86 26.7858V24.9388L106.298 39.5006L103.047 47.5781C102.954 47.8925 103.079 48.0819 103.393 48.0819H107.116C107.37 48.0819 107.527 47.989 107.623 47.7353L117.53 23.4419C117.687 23.1597 117.498 22.9382 117.216 22.9382H117.208Z" fill="url(#paint8_linear_7_2)"/>
<path d="M128.501 22.5917C126.04 22.5917 123.993 23.6313 122.728 25.3676L122.635 23.3812C122.635 23.0668 122.414 22.9382 122.16 22.9382H118.941C118.655 22.9382 118.498 23.0954 118.498 23.3812V47.6425C118.498 47.9283 118.655 48.0855 118.941 48.0855H122.474C122.76 48.0855 122.917 47.9283 122.917 47.6425V38.4931C124.243 40.0722 126.168 40.9832 128.501 40.9832C133.549 40.9832 136.768 37.2285 136.768 31.8017C136.768 26.375 133.549 22.5917 128.501 22.5917ZM127.397 36.9462C124.557 36.9462 122.635 34.8313 122.635 31.8053C122.635 28.7793 124.557 26.6322 127.397 26.6322C130.237 26.6322 132.192 28.7472 132.192 31.8053C132.192 34.8634 130.237 36.9462 127.397 36.9462Z" fill="url(#paint9_linear_7_2)"/>
<path d="M150.269 37.0748L147.586 35.8744C147.332 35.7493 147.111 35.8422 146.986 36.0959C146.639 36.6961 146.228 36.9461 145.66 36.9461C144.271 36.9461 143.674 35.9994 143.674 34.0774V26.9144H147.868C148.154 26.9144 148.311 26.725 148.311 26.4714V23.3811C148.311 23.0953 148.154 22.9381 147.868 22.9381H143.674V18.1723C143.674 17.9187 143.485 17.7329 143.231 17.7329H139.669C139.383 17.7329 139.226 17.9187 139.226 18.1723V22.9381H136.64C136.354 22.9381 136.197 23.0953 136.197 23.3811V26.4714C136.197 26.725 136.354 26.9144 136.64 26.9144H139.226V33.7916C139.226 38.5859 141.341 40.9831 145.16 40.9831C147.179 40.9831 149.133 40.1329 150.394 37.7964C150.49 37.6714 150.522 37.5428 150.522 37.4499C150.522 37.2927 150.426 37.1676 150.269 37.0712V37.0748Z" fill="url(#paint10_linear_7_2)"/>
<path d="M158.786 22.5917C153.109 22.5917 149.415 26.4107 149.415 31.8017C149.415 37.1927 153.105 40.9832 158.786 40.9832C164.466 40.9832 168.157 37.1677 168.157 31.8017C168.157 26.4357 164.466 22.5917 158.786 22.5917ZM158.786 36.9462C155.946 36.9462 153.991 34.8313 153.991 31.8053C153.991 28.7793 155.946 26.6322 158.786 26.6322C161.626 26.6322 163.58 28.7472 163.58 31.8053C163.58 34.8634 161.622 36.9462 158.786 36.9462Z" fill="url(#paint11_linear_7_2)"/>
<path d="M191.561 15.5573H187.334C187.081 15.5573 186.859 15.6501 186.798 15.9038L180.046 34.2346L173.233 15.9038C173.173 15.6501 172.983 15.5573 172.73 15.5573H168.439C168.185 15.5573 168.028 15.6823 168.028 15.8716C168.028 15.9324 168.057 15.9967 168.089 16.061L177.899 40.2901C177.996 40.5437 178.153 40.6366 178.406 40.6366H181.593C181.815 40.6366 182.004 40.5437 182.097 40.2901L191.907 16.061C192.032 15.7787 191.875 15.5573 191.561 15.5573Z" fill="#F95A0B"/>
<path d="M206.926 22.9382H203.739C203.457 22.9382 203.264 23.0633 203.264 23.3812L203.139 25.3676C201.878 23.6313 199.824 22.5917 197.366 22.5917C192.318 22.5917 189.099 26.3464 189.099 31.8017C189.099 37.257 192.318 40.9832 197.366 40.9832C199.828 40.9832 201.878 39.9436 203.139 38.2073L203.264 40.1973C203.264 40.5116 203.454 40.6367 203.739 40.6367H206.926C207.208 40.6367 207.398 40.4795 207.398 40.1973V23.3812C207.398 23.0954 207.208 22.9382 206.926 22.9382ZM198.47 36.9426C195.633 36.9426 193.676 34.8277 193.676 31.8017C193.676 28.7758 195.633 26.6287 198.47 26.6287C201.307 26.6287 203.264 28.7436 203.264 31.8017C203.264 34.8598 201.31 36.9426 198.47 36.9426Z" fill="#F95A0B"/>
<path d="M225.793 22.9382H222.26C221.974 22.9382 221.817 23.0954 221.817 23.3812V31.9625C221.817 35.3386 219.766 36.9462 217.587 36.9462C215.286 36.9462 214.211 35.5887 214.211 32.6556V23.3812C214.211 23.0954 214.053 22.9382 213.768 22.9382H210.202C209.952 22.9382 209.759 23.0954 209.759 23.3812V34.4562C209.759 38.5253 212.124 40.9868 216.226 40.9868C218.469 40.9868 220.706 40.0722 221.999 38.1823L222.092 40.2008C222.092 40.5152 222.313 40.6403 222.567 40.6403H225.786C226.068 40.6403 226.229 40.4831 226.229 40.2008V23.3848C226.229 23.099 226.072 22.9418 225.786 22.9418L225.793 22.9382Z" fill="#F95A0B"/>
<path d="M232.763 15.0214H229.23C228.944 15.0214 228.787 15.1786 228.787 15.4644V40.1972C228.787 40.4794 228.944 40.6366 229.23 40.6366H232.763C233.049 40.6366 233.206 40.4794 233.206 40.1972V15.4644C233.206 15.1786 233.049 15.0214 232.763 15.0214Z" fill="#F95A0B"/>
<path d="M247.746 37.0748L245.063 35.8744C244.813 35.7493 244.588 35.8422 244.467 36.0959C244.12 36.6961 243.709 36.9461 243.141 36.9461C241.752 36.9461 241.151 35.9994 241.151 34.0774V26.9144H245.349C245.631 26.9144 245.792 26.725 245.792 26.4714V23.3811C245.792 23.0953 245.635 22.9381 245.349 22.9381H241.151V18.1723C241.151 17.9187 240.962 17.7329 240.708 17.7329H237.143C236.857 17.7329 236.7 17.9187 236.7 18.1723V22.9381H234.113C233.831 22.9381 233.67 23.0953 233.67 23.3811V26.4714C233.67 26.725 233.828 26.9144 234.113 26.9144H236.7V33.7916C236.7 38.5859 238.815 40.9831 242.63 40.9831C244.649 40.9831 246.603 40.1329 247.868 37.7964C247.961 37.6714 247.993 37.5428 247.993 37.4499C247.993 37.2927 247.9 37.1676 247.739 37.0712L247.746 37.0748Z" fill="#F95A0B"/>
<path d="M191.561 15.5573H187.334C187.081 15.5573 186.859 15.6501 186.798 15.9038L180.046 34.2346L173.233 15.9038C173.173 15.6501 172.983 15.5573 172.73 15.5573H168.439C168.185 15.5573 168.028 15.6823 168.028 15.8716C168.028 15.9324 168.057 15.9967 168.089 16.061L177.899 40.2901C177.996 40.5437 178.153 40.6366 178.406 40.6366H181.593C181.815 40.6366 182.004 40.5437 182.097 40.2901L191.907 16.061C192.032 15.7787 191.875 15.5573 191.561 15.5573Z" fill="url(#paint12_linear_7_2)"/>
<path d="M206.926 22.9382H203.739C203.457 22.9382 203.264 23.0633 203.264 23.3812L203.139 25.3676C201.878 23.6313 199.824 22.5917 197.366 22.5917C192.318 22.5917 189.099 26.3464 189.099 31.8017C189.099 37.257 192.318 40.9832 197.366 40.9832C199.828 40.9832 201.878 39.9436 203.139 38.2073L203.264 40.1973C203.264 40.5116 203.454 40.6367 203.739 40.6367H206.926C207.208 40.6367 207.398 40.4795 207.398 40.1973V23.3812C207.398 23.0954 207.208 22.9382 206.926 22.9382ZM198.47 36.9426C195.633 36.9426 193.676 34.8277 193.676 31.8017C193.676 28.7758 195.633 26.6287 198.47 26.6287C201.307 26.6287 203.264 28.7436 203.264 31.8017C203.264 34.8598 201.31 36.9426 198.47 36.9426Z" fill="url(#paint13_linear_7_2)"/>
<path d="M225.793 22.9382H222.26C221.974 22.9382 221.817 23.0954 221.817 23.3812V31.9625C221.817 35.3386 219.766 36.9462 217.587 36.9462C215.286 36.9462 214.211 35.5887 214.211 32.6556V23.3812C214.211 23.0954 214.053 22.9382 213.768 22.9382H210.202C209.952 22.9382 209.759 23.0954 209.759 23.3812V34.4562C209.759 38.5253 212.124 40.9868 216.226 40.9868C218.469 40.9868 220.706 40.0722 221.999 38.1823L222.092 40.2008C222.092 40.5152 222.313 40.6403 222.567 40.6403H225.786C226.068 40.6403 226.229 40.4831 226.229 40.2008V23.3848C226.229 23.099 226.072 22.9418 225.786 22.9418L225.793 22.9382Z" fill="url(#paint14_linear_7_2)"/>
<path d="M232.763 15.0214H229.23C228.944 15.0214 228.787 15.1786 228.787 15.4644V40.1972C228.787 40.4794 228.944 40.6366 229.23 40.6366H232.763C233.049 40.6366 233.206 40.4794 233.206 40.1972V15.4644C233.206 15.1786 233.049 15.0214 232.763 15.0214Z" fill="url(#paint15_linear_7_2)"/>
<path d="M247.746 37.0748L245.063 35.8744C244.813 35.7493 244.588 35.8422 244.467 36.0959C244.12 36.6961 243.709 36.9461 243.141 36.9461C241.752 36.9461 241.151 35.9994 241.151 34.0774V26.9144H245.349C245.631 26.9144 245.792 26.725 245.792 26.4714V23.3811C245.792 23.0953 245.635 22.9381 245.349 22.9381H241.151V18.1723C241.151 17.9187 240.962 17.7329 240.708 17.7329H237.143C236.857 17.7329 236.7 17.9187 236.7 18.1723V22.9381H234.113C233.831 22.9381 233.67 23.0953 233.67 23.3811V26.4714C233.67 26.725 233.828 26.9144 234.113 26.9144H236.7V33.7916C236.7 38.5859 238.815 40.9831 242.63 40.9831C244.649 40.9831 246.603 40.1329 247.868 37.7964C247.961 37.6714 247.993 37.5428 247.993 37.4499C247.993 37.2927 247.9 37.1676 247.739 37.0712L247.746 37.0748Z" fill="url(#paint16_linear_7_2)"/>
<path d="M191.954 20.7018C191.954 20.6268 191.986 20.5446 192.004 20.4731C192.057 20.2731 192.129 20.0801 192.218 19.8944C192.347 19.6264 192.504 19.3728 192.693 19.1441C192.932 18.8548 193.215 18.6011 193.529 18.3939C193.926 18.1331 194.365 17.9438 194.822 17.8187C195.423 17.6544 196.048 17.5901 196.669 17.5936C197.509 17.5936 198.348 17.7151 199.167 17.8937C200.113 18.1009 201.028 18.4332 201.982 18.6083C202.678 18.7369 203.382 18.8298 204.09 18.8583C204.836 18.8869 205.615 18.8583 206.33 18.6154C206.744 18.4725 207.141 18.2474 207.405 17.8866V17.908C207.405 17.9831 207.373 18.0724 207.355 18.1438C207.301 18.3475 207.223 18.5439 207.133 18.7369C207.001 19.012 206.837 19.2692 206.64 19.5014C206.394 19.7979 206.097 20.0516 205.772 20.2588C205.361 20.5196 204.901 20.7053 204.429 20.8232C203.804 20.9804 203.154 21.0305 202.511 21.0162C201.635 20.9947 200.764 20.8554 199.913 20.6553C199.163 20.4803 198.441 20.2159 197.688 20.0623C197.084 19.9372 196.473 19.8444 195.858 19.7908C195.137 19.7265 194.401 19.7122 193.686 19.8372C193.079 19.9408 192.436 20.1552 192.029 20.641C192.007 20.666 191.986 20.6946 191.964 20.7232V20.7018H191.954Z" fill="url(#paint17_linear_7_2)"/>
</g>
<defs>
<linearGradient id="paint0_linear_7_2" x1="7.07359" y1="10.7594" x2="45.7394" y2="50.0182" gradientUnits="userSpaceOnUse">
<stop stop-color="#501B9A"/>
<stop offset="0.37" stop-color="#511D9A"/>
<stop offset="0.54" stop-color="#57249E"/>
<stop offset="0.67" stop-color="#6031A3"/>
<stop offset="0.77" stop-color="#6E43AB"/>
<stop offset="0.8" stop-color="#7349AE"/>
<stop offset="1" stop-color="#9676C2"/>
</linearGradient>
<linearGradient id="paint1_linear_7_2" x1="7.07351" y1="10.7593" x2="45.7393" y2="50.0182" gradientUnits="userSpaceOnUse">
<stop stop-color="#501B9A"/>
<stop offset="0.37" stop-color="#511D9A"/>
<stop offset="0.54" stop-color="#57249E"/>
<stop offset="0.67" stop-color="#6031A3"/>
<stop offset="0.77" stop-color="#6E43AB"/>
<stop offset="0.8" stop-color="#7349AE"/>
<stop offset="1" stop-color="#9676C2"/>
</linearGradient>
<linearGradient id="paint2_linear_7_2" x1="25.6294" y1="29.8582" x2="28.9661" y2="33.245" gradientUnits="userSpaceOnUse">
<stop stop-color="#501B9A"/>
<stop offset="0.37" stop-color="#511D9A"/>
<stop offset="0.54" stop-color="#57249E"/>
<stop offset="0.67" stop-color="#6031A3"/>
<stop offset="0.77" stop-color="#6E43AB"/>
<stop offset="0.8" stop-color="#7349AE"/>
<stop offset="1" stop-color="#9676C2"/>
</linearGradient>
<linearGradient id="paint3_linear_7_2" x1="22.1212" y1="26.2964" x2="32.4745" y2="36.8105" gradientUnits="userSpaceOnUse">
<stop stop-color="#F95A0B"/>
<stop offset="0.27" stop-color="#F95B0D"/>
<stop offset="0.46" stop-color="#F96217"/>
<stop offset="0.62" stop-color="#F96C26"/>
<stop offset="0.77" stop-color="#FA7B3C"/>
<stop offset="1" stop-color="#FB9C6D"/>
</linearGradient>
<linearGradient id="paint4_linear_7_2" x1="22.1212" y1="26.2964" x2="32.4745" y2="36.8105" gradientUnits="userSpaceOnUse">
<stop stop-color="#F95A0B"/>
<stop offset="0.27" stop-color="#F95B0D"/>
<stop offset="0.46" stop-color="#F96217"/>
<stop offset="0.62" stop-color="#F96C26"/>
<stop offset="0.77" stop-color="#FA7B3C"/>
<stop offset="1" stop-color="#FB9C6D"/>
</linearGradient>
<linearGradient id="paint5_linear_7_2" x1="22.1211" y1="26.2964" x2="32.4744" y2="36.8105" gradientUnits="userSpaceOnUse">
<stop stop-color="#F95A0B"/>
<stop offset="0.27" stop-color="#F95B0D"/>
<stop offset="0.46" stop-color="#F96217"/>
<stop offset="0.62" stop-color="#F96C26"/>
<stop offset="0.77" stop-color="#FA7B3C"/>
<stop offset="1" stop-color="#FB9C6D"/>
</linearGradient>
<linearGradient id="paint6_linear_7_2" x1="22.1212" y1="26.2964" x2="32.4745" y2="36.8104" gradientUnits="userSpaceOnUse">
<stop stop-color="#F95A0B"/>
<stop offset="0.27" stop-color="#F95B0D"/>
<stop offset="0.46" stop-color="#F96217"/>
<stop offset="0.62" stop-color="#F96C26"/>
<stop offset="0.77" stop-color="#FA7B3C"/>
<stop offset="1" stop-color="#FB9C6D"/>
</linearGradient>
<linearGradient id="paint7_linear_7_2" x1="83.0869" y1="-0.633592" x2="143.234" y2="60.4358" gradientUnits="userSpaceOnUse">
<stop offset="0.35" stop-color="#501B9A"/>
<stop offset="0.53" stop-color="#531F9C"/>
<stop offset="0.75" stop-color="#5E2EA2"/>
<stop offset="0.97" stop-color="#7045AC"/>
<stop offset="1" stop-color="#7349AE"/>
</linearGradient>
<linearGradient id="paint8_linear_7_2" x1="83.0869" y1="-0.633565" x2="143.235" y2="60.4358" gradientUnits="userSpaceOnUse">
<stop offset="0.35" stop-color="#501B9A"/>
<stop offset="0.53" stop-color="#531F9C"/>
<stop offset="0.75" stop-color="#5E2EA2"/>
<stop offset="0.97" stop-color="#7045AC"/>
<stop offset="1" stop-color="#7349AE"/>
</linearGradient>
<linearGradient id="paint9_linear_7_2" x1="83.0868" y1="-0.633541" x2="143.234" y2="60.4358" gradientUnits="userSpaceOnUse">
<stop offset="0.35" stop-color="#501B9A"/>
<stop offset="0.53" stop-color="#531F9C"/>
<stop offset="0.75" stop-color="#5E2EA2"/>
<stop offset="0.97" stop-color="#7045AC"/>
<stop offset="1" stop-color="#7349AE"/>
</linearGradient>
<linearGradient id="paint10_linear_7_2" x1="83.0869" y1="-0.633625" x2="143.235" y2="60.4357" gradientUnits="userSpaceOnUse">
<stop offset="0.35" stop-color="#501B9A"/>
<stop offset="0.53" stop-color="#531F9C"/>
<stop offset="0.75" stop-color="#5E2EA2"/>
<stop offset="0.97" stop-color="#7045AC"/>
<stop offset="1" stop-color="#7349AE"/>
</linearGradient>
<linearGradient id="paint11_linear_7_2" x1="83.0869" y1="-0.633541" x2="143.235" y2="60.4358" gradientUnits="userSpaceOnUse">
<stop offset="0.35" stop-color="#501B9A"/>
<stop offset="0.53" stop-color="#531F9C"/>
<stop offset="0.75" stop-color="#5E2EA2"/>
<stop offset="0.97" stop-color="#7045AC"/>
<stop offset="1" stop-color="#7349AE"/>
</linearGradient>
<linearGradient id="paint12_linear_7_2" x1="182.379" y1="1.61355" x2="232.934" y2="52.9477" gradientUnits="userSpaceOnUse">
<stop offset="0.19" stop-color="#F95A0B"/>
<stop offset="0.45" stop-color="#F96116"/>
<stop offset="0.91" stop-color="#F97635"/>
<stop offset="1" stop-color="#FA7B3C"/>
</linearGradient>
<linearGradient id="paint13_linear_7_2" x1="182.379" y1="1.6136" x2="232.934" y2="52.9478" gradientUnits="userSpaceOnUse">
<stop offset="0.19" stop-color="#F95A0B"/>
<stop offset="0.45" stop-color="#F96116"/>
<stop offset="0.91" stop-color="#F97635"/>
<stop offset="1" stop-color="#FA7B3C"/>
</linearGradient>
<linearGradient id="paint14_linear_7_2" x1="182.379" y1="1.61362" x2="232.934" y2="52.9477" gradientUnits="userSpaceOnUse">
<stop offset="0.19" stop-color="#F95A0B"/>
<stop offset="0.45" stop-color="#F96116"/>
<stop offset="0.91" stop-color="#F97635"/>
<stop offset="1" stop-color="#FA7B3C"/>
</linearGradient>
<linearGradient id="paint15_linear_7_2" x1="182.379" y1="1.61354" x2="232.934" y2="52.9476" gradientUnits="userSpaceOnUse">
<stop offset="0.19" stop-color="#F95A0B"/>
<stop offset="0.45" stop-color="#F96116"/>
<stop offset="0.91" stop-color="#F97635"/>
<stop offset="1" stop-color="#FA7B3C"/>
</linearGradient>
<linearGradient id="paint16_linear_7_2" x1="182.379" y1="1.61352" x2="232.935" y2="52.9476" gradientUnits="userSpaceOnUse">
<stop offset="0.19" stop-color="#F95A0B"/>
<stop offset="0.45" stop-color="#F96116"/>
<stop offset="0.91" stop-color="#F97635"/>
<stop offset="1" stop-color="#FA7B3C"/>
</linearGradient>
<linearGradient id="paint17_linear_7_2" x1="203.543" y1="22.8632" x2="195.808" y2="15.7466" gradientUnits="userSpaceOnUse">
<stop stop-color="#501B9A"/>
<stop offset="0.32" stop-color="#521E9B"/>
<stop offset="0.59" stop-color="#5A289F"/>
<stop offset="0.84" stop-color="#673AA7"/>
<stop offset="1" stop-color="#7349AE"/>
</linearGradient>
<clipPath id="clip0_7_2">
<rect width="248" height="55.1032" fill="white" transform="translate(0 4)"/>
</clipPath>
</defs>
</svg>
